PathFileType	4	(X/Y/Z)	 s07c0301.trc
DataRate	CameraRate	NumFrames	NumMarkers	Units	OrigDataRate	OrigDataStartFrame	OrigNumFrames
200	200	4	48	mm	200	251	2000
Frame#	Time	racr			lacr			c7			jug			rlel			rdr			llel			ldr			s2			lic			ric			lasi			rasi			rpsi			lpsi			rgt			lgt			rth1			rth2			rth3			rth4			rlfc			rmfc			rsh1			rsh2			rsh3			rsh4			rlmal			rcal			rtoe			rmt5			lth1			lth2			lth4			lth3			llfc			lmfc			lsh1			lsh2			lsh3			lsh4			llmal			lcal			ltoe			lmt5			SBIKE			LBIKE			RBIKE			
		X1	Y1	Z1	X2	Y2	Z2	X3	Y3	Z3	X4	Y4	Z4	X5	Y5	Z5	X6	Y6	Z6	X7	Y7	Z7	X8	Y8	Z8	X9	Y9	Z9	X10	Y10	Z10	X11	Y11	Z11	X12	Y12	Z12	X13	Y13	Z13	X14	Y14	Z14	X15	Y15	Z15	X16	Y16	Z16	X17	Y17	Z17	X18	Y18	Z18	X19	Y19	Z19	X20	Y20	Z20	X21	Y21	Z21	X22	Y22	Z22	X23	Y23	Z23	X24	Y24	Z24	X25	Y25	Z25	X26	Y26	Z26	X27	Y27	Z27	X28	Y28	Z28	X29	Y29	Z29	X30	Y30	Z30	X31	Y31	Z31	X32	Y32	Z32	X33	Y33	Z33	X34	Y34	Z34	X35	Y35	Z35	X36	Y36	Z36	X37	Y37	Z37	X38	Y38	Z38	X39	Y39	Z39	X40	Y40	Z40	X41	Y41	Z41	X42	Y42	Z42	X43	Y43	Z43	X44	Y44	Z44	X45	Y45	Z45	X46	Y46	Z46	X47	Y47	Z47	X48	Y48	Z48	
251	1.2550	445.673119	1436.575479	-85.216689	431.212296	1428.807649	-363.675811	416.698113	1465.342192	-227.972767	376.573250	1328.910046	-223.714898	521.971048	1122.359319	33.905608	718.345093	911.667755	-52.036130	531.897335	1129.845531	-464.283452	727.492045	912.056733	-397.872269	-144.809043	1212.493993	-241.972077	20.027172	1252.963983	-363.052067	24.650956	1247.108044	-85.252077	55.094168	1176.785741	-351.416792	33.892587	1188.507931	-102.748647	-118.574069	1249.537159	-188.544123	-101.956172	1259.877410	-296.210347	-42.473498	1124.359408	-43.798764	-35.706888	1103.244774	-410.954826	90.175017	1054.413482	-36.723359	175.042238	1032.752309	-44.188513	239.323051	976.583510	-39.900373	190.549668	1061.862961	-60.281865	356.215315	889.131220	-73.012774	354.969306	875.551963	-177.560246	315.517875	750.736472	-52.735004	310.457800	663.579209	-74.306509	266.759641	588.721494	-72.587794	327.279400	664.036135	-110.910979	219.068433	460.637856	-77.981517	154.352367	419.091738	-107.804880	443.918620	402.874773	-118.436493	366.561063	367.554860	-48.909766	28.260785	998.411883	-415.720531	100.138377	947.219715	-417.024858	127.914946	969.938003	-409.639614	137.602665	866.354782	-411.514086	232.222747	714.279416	-375.647419	218.627264	699.765491	-279.147571	134.346765	600.727051	-399.915600	91.556136	528.291730	-380.218491	17.713620	478.135127	-391.196611	93.493868	530.072546	-338.280565	-80.592817	383.816897	-393.114410	-160.472791	359.499550	-361.043542	119.190724	286.086007	-354.459828	36.535654	278.365489	-419.226235	-261.258062	975.205929	-232.777700	-76.795982	83.293693	-437.763542	-83.373261	79.690264	-40.160886	
252	1.2600	445.672043	1436.575299	-85.216247	431.194148	1428.783881	-363.694586	416.643435	1465.354279	-227.954052	376.575363	1328.880109	-223.722744	521.947432	1122.355561	33.912800	718.343554	911.670094	-52.044972	531.878320	1129.818714	-464.304630	727.508114	912.058431	-397.892507	-144.841022	1212.481499	-241.966639	20.028954	1252.916434	-363.058340	24.613259	1247.096723	-85.206700	55.100699	1176.747960	-351.426102	33.876123	1188.466220	-102.743720	-118.606883	1249.520442	-188.555080	-101.958241	1259.864553	-296.234603	-42.478703	1124.356439	-43.793508	-35.710488	1103.226180	-410.947484	90.188352	1054.422722	-36.729659	175.024900	1032.778487	-44.182670	239.346305	976.630633	-39.919653	190.560894	1061.901824	-60.302481	356.235558	889.205702	-73.051827	354.975440	875.621950	-177.574890	315.545162	750.797666	-52.766351	310.493057	663.658743	-74.318280	266.794434	588.773043	-72.609615	327.308927	664.084834	-110.937063	219.097390	460.716488	-77.975340	154.374588	419.148458	-107.816631	443.923277	402.892701	-118.454327	366.548341	367.598131	-48.910600	28.244373	998.391914	-415.698354	100.118344	947.194725	-416.988478	127.897012	969.904765	-409.613074	137.565276	866.319762	-411.495107	232.175653	714.256764	-375.590234	218.572920	699.727835	-279.096053	134.309319	600.704533	-399.909691	91.506287	528.250288	-380.203730	17.686072	478.084438	-391.172736	93.443356	530.027780	-338.226585	-80.613198	383.776037	-393.142929	-160.492085	359.428236	-361.035666	119.200437	286.069450	-354.455837	36.541369	278.323873	-419.219703	-261.255593	975.210095	-232.771442	-76.788612	83.309830	-437.760704	-83.380195	79.687145	-40.151152	
253	1.2650	445.646658	1436.550802	-85.222207	431.191831	1428.775206	-363.781759	416.583603	1465.376737	-227.986051	376.575343	1328.869166	-223.718960	521.914475	1122.330193	33.907180	718.876962	911.663256	-51.439714	531.853287	1129.799695	-464.337481	727.502131	912.045867	-397.892938	-144.854416	1212.469733	-241.994345	25.698554	1258.055735	-378.493062	24.600339	1247.066688	-85.222667	55.073111	1176.712197	-351.407532	33.845109	1188.443816	-102.744510	-118.642816	1249.526969	-188.562455	-101.998699	1259.853973	-296.244495	-42.509099	1124.355821	-43.804365	-35.727433	1103.181132	-410.933719	90.172039	1054.474099	-36.751752	175.016983	1032.809900	-44.230599	239.330113	976.713978	-39.950425	190.536979	1061.971199	-60.307659	356.237286	889.270094	-73.085494	354.983426	875.693031	-177.624099	315.546494	750.873366	-52.792592	310.505495	663.719126	-74.339735	266.831617	588.839190	-72.627421	327.309925	664.140493	-110.970694	219.114715	460.787278	-77.979225	154.388327	419.255540	-107.780319	443.959151	402.888248	-118.456228	366.557762	367.620867	-48.927585	28.220386	998.354782	-415.710861	100.089617	947.164209	-416.963204	127.872065	969.872890	-409.597709	137.527666	866.283256	-411.469418	232.132261	714.216483	-375.544937	218.536616	699.666473	-279.067081	134.254587	600.665560	-399.862171	91.466883	528.201411	-380.172977	17.651870	478.057040	-391.167756	93.438173	530.005192	-338.215485	-80.642976	383.717445	-393.126800	-160.508342	359.349760	-361.032213	119.207908	286.054197	-354.462336	36.547811	278.284661	-419.214546	-261.253698	975.208656	-232.776832	-76.801666	83.309412	-437.776079	-83.372604	79.687932	-40.159562	
254	1.2700	445.629545	1436.511020	-85.172490	431.141391	1428.726357	-363.757666	416.565105	1465.392995	-228.002698	376.576571	1328.839031	-223.719113	521.894871	1122.281371	33.931054	718.913678	911.698305	-51.376291	531.821899	1129.768898	-464.388134	726.892896	911.708179	-397.265391	-144.894086	1212.455241	-241.999709	25.678885	1258.027323	-378.525899	24.579396	1247.056042	-85.197994	55.072093	1176.634939	-351.377280	33.819797	1188.430556	-102.742756	-118.658026	1249.504136	-188.589821	-102.021099	1259.834113	-296.264954	-42.515378	1124.363330	-43.800914	-35.745429	1103.160620	-410.933210	90.175589	1054.487837	-36.759659	175.017687	1032.857159	-44.236653	239.345341	976.761991	-39.989705	190.535139	1062.017120	-60.340137	356.235821	889.337846	-73.100111	354.990030	875.757413	-177.652875	315.592540	750.920207	-52.825812	310.530291	663.800374	-74.370527	266.862811	588.901908	-72.634262	327.316540	664.189089	-110.988449	219.154132	460.856976	-77.987558	154.410377	419.312288	-107.806681	443.949970	402.901179	-118.455316	366.553251	367.644664	-48.928095	28.204769	998.338727	-415.686952	100.058944	947.129444	-416.919025	127.840050	969.822823	-409.565167	137.503183	866.237208	-411.415058	232.076585	714.194182	-375.505559	218.479838	699.639907	-279.045072	134.222614	600.638195	-399.838300	91.412557	528.169452	-380.157880	17.612829	478.013687	-391.145641	93.337810	529.947196	-338.212457	-80.668220	383.688290	-393.119372	-160.536006	359.293102	-361.015536	119.195048	286.048778	-354.475096	36.555070	278.247599	-419.210836	-261.253427	975.203043	-232.762611	-76.788129	83.301847	-437.778478	-83.355306	79.693725	-40.158926	
